<?xml version="1.0" standalone="no"?>
<!DOCTYPE svg PUBLIC "-//W3C//DTD SVG 20010904//EN"
 "http://www.w3.org/TR/2001/REC-SVG-20010904/DTD/svg10.dtd">
<svg version="1.0" xmlns="http://www.w3.org/2000/svg"
 width="32.000000pt" height="32.000000pt" viewBox="0 0 32.000000 32.000000"
 preserveAspectRatio="xMidYMid meet">

<g transform="translate(0.000000,32.000000) scale(0.100000,-0.100000)"
fill="#000000" stroke="none">
<path d="M35 235 l-34 -75 34 -75 34 -75 91 0 91 0 34 75 34 75 -34 75 -34 75
-91 0 -91 0 -34 -75z m165 28 c0 -5 -9 -19 -20 -33 l-20 -25 -20 25 c-28 35
-25 40 20 40 22 0 40 -3 40 -7z m-86 -75 c-3 -4 -19 -8 -35 -8 l-30 0 18 30
18 30 17 -22 c9 -12 14 -26 12 -30z m134 -6 c-11 -2 -26 -1 -34 2 -13 5 -12 9
2 31 l17 26 17 -28 c16 -27 16 -28 -2 -31z m-134 -50 c2 -4 -3 -18 -12 -30
l-17 -22 -18 30 -18 30 30 0 c16 0 32 -4 35 -8z m138 -22 l-17 -30 -17 22
c-21 28 -15 38 22 38 l29 0 -17 -30z m-68 -25 c22 -34 21 -35 -24 -35 -22 0
-40 2 -40 5 0 11 32 55 40 55 4 0 15 -11 24 -25z"/>
</g>
</svg>
